<mxfile host="app.diagrams.net" agent="Mozilla/5.0 (Windows NT 10.0; Win64; x64) AppleWebKit/537.36 (KHTML, like Gecko) Chrome/128.0.0.0 Safari/537.36" version="24.7.15">
  <diagram name="Seite-1" id="gHAk2n9--bl8hlBts9dq">
    <mxGraphModel dx="1050" dy="530" grid="1" gridSize="10" guides="1" tooltips="1" connect="1" arrows="1" fold="1" page="1" pageScale="1" pageWidth="827" pageHeight="1169" math="0" shadow="0">
      <root>
        <mxCell id="0" />
        <mxCell id="1" parent="0" />
        <mxCell id="7IxSIeYY3HS-xeAnoSK3-1" value="Data&lt;div&gt;Host&lt;/div&gt;" style="shape=cylinder3;whiteSpace=wrap;html=1;boundedLbl=1;backgroundOutline=1;size=15;" vertex="1" parent="1">
          <mxGeometry x="80" y="80" width="60" height="80" as="geometry" />
        </mxCell>
        <mxCell id="7IxSIeYY3HS-xeAnoSK3-2" value="Data&lt;div&gt;Host&lt;/div&gt;" style="shape=cylinder3;whiteSpace=wrap;html=1;boundedLbl=1;backgroundOutline=1;size=15;" vertex="1" parent="1">
          <mxGeometry x="660" y="80" width="60" height="80" as="geometry" />
        </mxCell>
        <mxCell id="7IxSIeYY3HS-xeAnoSK3-3" value="Transfer Host" style="rounded=0;whiteSpace=wrap;html=1;" vertex="1" parent="1">
          <mxGeometry x="200" y="80" width="120" height="80" as="geometry" />
        </mxCell>
        <mxCell id="7IxSIeYY3HS-xeAnoSK3-4" value="Transfer Host" style="rounded=0;whiteSpace=wrap;html=1;" vertex="1" parent="1">
          <mxGeometry x="480" y="80" width="120" height="80" as="geometry" />
        </mxCell>
        <mxCell id="7IxSIeYY3HS-xeAnoSK3-5" value="" style="endArrow=classic;startArrow=classic;html=1;rounded=0;exitX=1;exitY=0.5;exitDx=0;exitDy=0;exitPerimeter=0;entryX=0;entryY=0.5;entryDx=0;entryDy=0;" edge="1" parent="1" source="7IxSIeYY3HS-xeAnoSK3-1" target="7IxSIeYY3HS-xeAnoSK3-3">
          <mxGeometry width="50" height="50" relative="1" as="geometry">
            <mxPoint x="390" y="230" as="sourcePoint" />
            <mxPoint x="440" y="180" as="targetPoint" />
          </mxGeometry>
        </mxCell>
        <mxCell id="7IxSIeYY3HS-xeAnoSK3-9" value="SFTP" style="edgeLabel;html=1;align=center;verticalAlign=middle;resizable=0;points=[];" vertex="1" connectable="0" parent="7IxSIeYY3HS-xeAnoSK3-5">
          <mxGeometry x="-0.0067" y="-2" relative="1" as="geometry">
            <mxPoint y="-2" as="offset" />
          </mxGeometry>
        </mxCell>
        <mxCell id="7IxSIeYY3HS-xeAnoSK3-6" value="" style="endArrow=classic;startArrow=classic;html=1;rounded=0;exitX=0;exitY=0.5;exitDx=0;exitDy=0;exitPerimeter=0;entryX=1;entryY=0.5;entryDx=0;entryDy=0;" edge="1" parent="1" source="7IxSIeYY3HS-xeAnoSK3-2" target="7IxSIeYY3HS-xeAnoSK3-4">
          <mxGeometry width="50" height="50" relative="1" as="geometry">
            <mxPoint x="190" y="130" as="sourcePoint" />
            <mxPoint x="610" y="150" as="targetPoint" />
          </mxGeometry>
        </mxCell>
        <mxCell id="7IxSIeYY3HS-xeAnoSK3-10" value="SFTP" style="edgeLabel;html=1;align=center;verticalAlign=middle;resizable=0;points=[];" vertex="1" connectable="0" parent="7IxSIeYY3HS-xeAnoSK3-6">
          <mxGeometry x="0.14" relative="1" as="geometry">
            <mxPoint x="4" as="offset" />
          </mxGeometry>
        </mxCell>
        <mxCell id="7IxSIeYY3HS-xeAnoSK3-7" value="" style="endArrow=classic;startArrow=classic;html=1;rounded=0;exitX=1;exitY=0.5;exitDx=0;exitDy=0;entryX=0;entryY=0.5;entryDx=0;entryDy=0;" edge="1" parent="1" source="7IxSIeYY3HS-xeAnoSK3-3" target="7IxSIeYY3HS-xeAnoSK3-4">
          <mxGeometry width="50" height="50" relative="1" as="geometry">
            <mxPoint x="370" y="170" as="sourcePoint" />
            <mxPoint x="410" y="150" as="targetPoint" />
          </mxGeometry>
        </mxCell>
        <mxCell id="7IxSIeYY3HS-xeAnoSK3-8" value="Hercules" style="edgeLabel;html=1;align=center;verticalAlign=middle;resizable=0;points=[];" vertex="1" connectable="0" parent="7IxSIeYY3HS-xeAnoSK3-7">
          <mxGeometry x="0.014" relative="1" as="geometry">
            <mxPoint as="offset" />
          </mxGeometry>
        </mxCell>
        <mxCell id="7IxSIeYY3HS-xeAnoSK3-11" value="Local" style="swimlane;whiteSpace=wrap;html=1;" vertex="1" parent="1">
          <mxGeometry x="50" y="40" width="280" height="240" as="geometry" />
        </mxCell>
        <mxCell id="7IxSIeYY3HS-xeAnoSK3-13" value="" style="sketch=0;pointerEvents=1;shadow=0;dashed=0;html=1;strokeColor=none;fillColor=#434445;aspect=fixed;labelPosition=center;verticalLabelPosition=bottom;verticalAlign=top;align=center;outlineConnect=0;shape=mxgraph.vvd.laptop;" vertex="1" parent="7IxSIeYY3HS-xeAnoSK3-11">
          <mxGeometry x="20" y="170" width="80" height="57.6" as="geometry" />
        </mxCell>
        <mxCell id="7IxSIeYY3HS-xeAnoSK3-15" value="" style="endArrow=classic;startArrow=classic;html=1;rounded=0;" edge="1" parent="7IxSIeYY3HS-xeAnoSK3-11" source="7IxSIeYY3HS-xeAnoSK3-13">
          <mxGeometry width="50" height="50" relative="1" as="geometry">
            <mxPoint x="10" y="109.28932188134524" as="sourcePoint" />
            <mxPoint x="60" y="120" as="targetPoint" />
          </mxGeometry>
        </mxCell>
        <mxCell id="7IxSIeYY3HS-xeAnoSK3-17" value="User" style="text;html=1;align=center;verticalAlign=middle;whiteSpace=wrap;rounded=0;" vertex="1" parent="7IxSIeYY3HS-xeAnoSK3-11">
          <mxGeometry x="30" y="180" width="60" height="30" as="geometry" />
        </mxCell>
        <mxCell id="7IxSIeYY3HS-xeAnoSK3-12" value="Remote" style="swimlane;whiteSpace=wrap;html=1;" vertex="1" parent="1">
          <mxGeometry x="470" y="40" width="280" height="240" as="geometry" />
        </mxCell>
        <mxCell id="7IxSIeYY3HS-xeAnoSK3-14" value="" style="sketch=0;pointerEvents=1;shadow=0;dashed=0;html=1;strokeColor=none;fillColor=#434445;aspect=fixed;labelPosition=center;verticalLabelPosition=bottom;verticalAlign=top;align=center;outlineConnect=0;shape=mxgraph.vvd.laptop;" vertex="1" parent="7IxSIeYY3HS-xeAnoSK3-12">
          <mxGeometry x="180" y="170" width="80" height="57.6" as="geometry" />
        </mxCell>
        <mxCell id="7IxSIeYY3HS-xeAnoSK3-18" value="User" style="text;html=1;align=center;verticalAlign=middle;whiteSpace=wrap;rounded=0;" vertex="1" parent="7IxSIeYY3HS-xeAnoSK3-12">
          <mxGeometry x="190" y="180" width="60" height="30" as="geometry" />
        </mxCell>
        <mxCell id="7IxSIeYY3HS-xeAnoSK3-16" value="" style="endArrow=classic;startArrow=classic;html=1;rounded=0;" edge="1" parent="1" source="7IxSIeYY3HS-xeAnoSK3-14">
          <mxGeometry width="50" height="50" relative="1" as="geometry">
            <mxPoint x="460" y="430" as="sourcePoint" />
            <mxPoint x="690" y="160" as="targetPoint" />
          </mxGeometry>
        </mxCell>
      </root>
    </mxGraphModel>
  </diagram>
</mxfile>
